# xmcd CD database file
#
# Track frame offsets:
#	150
#	20585
#	38277
#	60855
#	89287
#	126287
#	150997
#	171455
#	200405
#	222585
#	238932
#	253530
#	272697
#	295767
#	311155
#	326822
#
# Disc length: 4579 seconds
#
# Revision: 2
# Processed by: cddbd v1.5PL3 Copyright (c) Steve Scherf et al.
# Submitted via: CDex 1.51
#
DISCID=e411e110
DTITLE=Various Artist - The Only Color Worth Playing
DYEAR=1992
DGENRE=Blues
TTITLE0=I'm Ready - Lucky Peterson (I'm Ready)
TTITLE1=It ain't Right - Lucky Peterson (I'm Ready)
TTITLE2=Who's been Talkin'? - Lucky Peterson (I'm Ready)
TTITLE3=Junk Yard - Lucky Peterson (I'm Ready)
TTITLE4=Nothing but Smoke - Lucky Peterson (I'm Ready)
TTITLE5=Lucky Peterson (I'm Ready)
TTITLE6=Roberta - Lightnin' Sam Hopkins (It's A Sin To Be Rich)
TTITLE7=Katie Mae - Lightnin' Sam Hopkins (It's A Sin To Be Rich)
TTITLE8=It's a Sin to be Rich, It's a Low-Down Shame to be Poor - Lightnin' Sam Hopkins
TTITLE9=Just Out of Louisiana - Lightnin' Sam Hopkins (It's A Sin To Be Rich)
TTITLE10=Flyin' High - Johnny Copeland (Flyin' High)
TTITLE11=Hooked, Hog-Tied and Collared - Johnny Copeland (Flyin' High)
TTITLE12=Circumstances - Johnny Copeland w- Dr. John
TTITLE13=San Antone - Johnny Copeland (Flyin' High)
TTITLE14=Love Song - Johnny Copeland w- Buckwheat Zydeco
TTITLE15=Jambalaya (on the Bayou) - Johnny Copeland w- Dr. John
EXTD=YEAR: 1992
EXTT0=
EXTT1=
EXTT2=
EXTT3=
EXTT4=
EXTT5=
EXTT6=
EXTT7=
EXTT8=
EXTT9=
EXTT10=
EXTT11=
EXTT12=
EXTT13=
EXTT14=
EXTT15=
PLAYORDER=
